<svg xmlns="http://www.w3.org/2000/svg" viewBox="0 0 57.91 57.91"><defs><style>.cls-1{fill:#616160;}</style></defs><title>isogray</title><g id="Capa_2" data-name="Capa 2"><g id="Capa_1-2" data-name="Capa 1"><path class="cls-1" d="M29,0A29,29,0,1,0,57.91,29,29,29,0,0,0,29,0ZM55.09,29A26.14,26.14,0,1,1,29,2.82,26.16,26.16,0,0,1,55.09,29Z"/><path class="cls-1" d="M31.77,23.8c1-.63,2-1.28,2.93-1.94l3-2.05L38.8,19l-1.17-.72L21.55,8.39,20.88,8l-.4.67-.94,1.56-.4.66.67.39,13.64,8-10.89,8-.67.5.72.42,12.21,7.21-8.53,7.2-.4.34.45.27L33,47.21l-4.76,4.31.36.42L34,47.31l.23-.2L34,47l-6.48-4.17,9.33-7.51.11-.08-.12-.07L25.22,27.9l.52-.32C27.8,26.31,29.81,25.07,31.77,23.8Z"/></g></g></svg>